# Blender v2.78 (sub 0) OBJ File: 'box1.blend'
# www.blender.org
mtllib box2.mtl
o Plane
v 7.939136 -0.006830 8.007568
v -8.007702 -0.006830 8.007568
v 7.939136 -0.006830 -7.939269
v -8.007702 -0.006830 -7.939269
v 7.939136 -10.006829 8.007568
v 7.939136 -10.006829 -7.939269
v -8.007702 -10.006829 8.007568
v -8.007702 -10.006829 -7.939269
vn 0.0000 -1.0000 0.0000
vn -1.0000 0.0000 0.0000
vn 1.0000 0.0000 0.0000
vn 0.0000 0.0000 -1.0000
vn 0.0000 0.0000 1.0000
usemtl None
s off
f 1//1 2//1 4//1 3//1
f 1//2 3//2 6//2 5//2
f 4//3 2//3 7//3 8//3
f 2//4 1//4 5//4 7//4
f 4//5 8//5 6//5 3//5
